<svg width="300" height="300" viewBox="0 0 300 300" fill="none" xmlns="http://www.w3.org/2000/svg">
<rect x="20" y="20" width="260" height="260" rx="130" fill="url(#paint0_radial_18_83)"/>
<path d="M247 117V123" stroke="#00FF66" stroke-opacity="0.2"/>
<path d="M80 138V150" stroke="#00FF66" stroke-opacity="0.2"/>
<path d="M80 199V211" stroke="#00FF66" stroke-opacity="0.2"/>
<path d="M94 177V189" stroke="#00FF66" stroke-opacity="0.2"/>
<path d="M108 244V277" stroke="#00FF66" stroke-opacity="0.2"/>
<path d="M150 149V158" stroke="#00FF66" stroke-opacity="0.2"/>
<path d="M192 104V113" stroke="#00FF66" stroke-opacity="0.2"/>
<path d="M220 86V95" stroke="#00FF66" stroke-opacity="0.2"/>
<path d="M234 86V91" stroke="#00FF66" stroke-opacity="0.2"/>
<path d="M247 63V72" stroke="#00FF66" stroke-opacity="0.2"/>
<path d="M234 136V159" stroke="#00FF66" stroke-opacity="0.2"/>
<path d="M220 150V159" stroke="#00FF66" stroke-opacity="0.2"/>
<path d="M192 185V194" stroke="#00FF66" stroke-opacity="0.2"/>
<g filter="url(#filter0_f_18_83)">
<path d="M88 211.5V194.5C88 191.462 90.4624 189 93.5 189C96.5376 189 99 191.462 99 194.5V211.5C99 214.538 96.5376 217 93.5 217C90.4624 217 88 214.538 88 211.5Z" fill="#00FF66" fill-opacity="0.35"/>
<path d="M88 211.5V194.5C88 191.462 90.4624 189 93.5 189C96.5376 189 99 191.462 99 194.5V211.5C99 214.538 96.5376 217 93.5 217C90.4624 217 88 214.538 88 211.5Z" stroke="#00FF66" stroke-opacity="0.2"/>
</g>
<g filter="url(#filter1_f_18_83)">
<path d="M102 238.5V212.5C102 209.462 104.462 207 107.5 207C110.538 207 113 209.462 113 212.5V238.5C113 241.538 110.538 244 107.5 244C104.462 244 102 241.538 102 238.5Z" fill="#00FF66" fill-opacity="0.35"/>
<path d="M102 238.5V212.5C102 209.462 104.462 207 107.5 207C110.538 207 113 209.462 113 212.5V238.5C113 241.538 110.538 244 107.5 244C104.462 244 102 241.538 102 238.5Z" stroke="#00FF66" stroke-opacity="0.2"/>
</g>
<g filter="url(#filter2_f_18_83)">
<path d="M186 179.5V118.5C186 115.462 188.462 113 191.5 113C194.538 113 197 115.462 197 118.5V179.5C197 182.538 194.538 185 191.5 185C188.462 185 186 182.538 186 179.5Z" fill="#00FF66" fill-opacity="0.3"/>
<path d="M186 179.5V118.5C186 115.462 188.462 113 191.5 113C194.538 113 197 115.462 197 118.5V179.5C197 182.538 194.538 185 191.5 185C188.462 185 186 182.538 186 179.5Z" stroke="#00FF66" stroke-opacity="0.2"/>
</g>
<g filter="url(#filter3_f_18_83)">
<path d="M144 189.5V163.5C144 160.462 146.462 158 149.5 158C152.538 158 155 160.462 155 163.5V189.5C155 192.538 152.538 195 149.5 195C146.462 195 144 192.538 144 189.5Z" fill="#00FF66" fill-opacity="0.35"/>
<path d="M144 189.5V163.5C144 160.462 146.462 158 149.5 158C152.538 158 155 160.462 155 163.5V189.5C155 192.538 152.538 195 149.5 195C146.462 195 144 192.538 144 189.5Z" stroke="#00FF66" stroke-opacity="0.2"/>
</g>
<g filter="url(#filter4_f_18_83)">
<path d="M214 144.5V100.5C214 97.4624 216.462 95 219.5 95C222.538 95 225 97.4624 225 100.5V144.5C225 147.538 222.538 150 219.5 150C216.462 150 214 147.538 214 144.5Z" fill="#00FF66" fill-opacity="0.35"/>
<path d="M214 144.5V100.5C214 97.4624 216.462 95 219.5 95C222.538 95 225 97.4624 225 100.5V144.5C225 147.538 222.538 150 219.5 150C216.462 150 214 147.538 214 144.5Z" stroke="#00FF66" stroke-opacity="0.2"/>
</g>
<g filter="url(#filter5_f_18_83)">
<path d="M228 130.5V97.5C228 94.4624 230.462 92 233.5 92C236.538 92 239 94.4624 239 97.5V130.5C239 133.538 236.538 136 233.5 136C230.462 136 228 133.538 228 130.5Z" fill="#00FF66" fill-opacity="0.35"/>
<path d="M228 130.5V97.5C228 94.4624 230.462 92 233.5 92C236.538 92 239 94.4624 239 97.5V130.5C239 133.538 236.538 136 233.5 136C230.462 136 228 133.538 228 130.5Z" stroke="#00FF66" stroke-opacity="0.2"/>
</g>
<g filter="url(#filter6_f_18_83)">
<path d="M74 193.5V155.5C74 152.462 76.4624 150 79.5 150C82.5376 150 85 152.462 85 155.5V193.5C85 196.538 82.5376 199 79.5 199C76.4624 199 74 196.538 74 193.5Z" fill="#00FF66" fill-opacity="0.35"/>
<path d="M74 193.5V155.5C74 152.462 76.4624 150 79.5 150C82.5376 150 85 152.462 85 155.5V193.5C85 196.538 82.5376 199 79.5 199C76.4624 199 74 196.538 74 193.5Z" stroke="#00FF66" stroke-opacity="0.2"/>
</g>
<g filter="url(#filter7_f_18_83)">
<path d="M46 166.5V130.5C46 127.462 48.4624 125 51.5 125C54.5376 125 57 127.462 57 130.5V166.5C57 169.538 54.5376 172 51.5 172C48.4624 172 46 169.538 46 166.5Z" fill="#FF1F1F" fill-opacity="0.3"/>
<path d="M46 166.5V130.5C46 127.462 48.4624 125 51.5 125C54.5376 125 57 127.462 57 130.5V166.5C57 169.538 54.5376 172 51.5 172C48.4624 172 46 169.538 46 166.5Z" stroke="#FF1F1F" stroke-opacity="0.2"/>
</g>
<g filter="url(#filter8_f_18_83)">
<path d="M60 181.5V170.5C60 167.462 62.4624 165 65.5 165C68.5376 165 71 167.462 71 170.5V181.5C71 184.538 68.5376 187 65.5 187C62.4624 187 60 184.538 60 181.5Z" fill="#FF1F1F" fill-opacity="0.3"/>
<path d="M60 181.5V170.5C60 167.462 62.4624 165 65.5 165C68.5376 165 71 167.462 71 170.5V181.5C71 184.538 68.5376 187 65.5 187C62.4624 187 60 184.538 60 181.5Z" stroke="#FF1F1F" stroke-opacity="0.2"/>
</g>
<g filter="url(#filter9_f_18_83)">
<path d="M200 159.5V148.5C200 145.462 202.462 143 205.5 143C208.538 143 211 145.462 211 148.5V159.5C211 162.538 208.538 165 205.5 165C202.462 165 200 162.538 200 159.5Z" fill="#FF1F1F" fill-opacity="0.5"/>
<path d="M200 159.5V148.5C200 145.462 202.462 143 205.5 143C208.538 143 211 145.462 211 148.5V159.5C211 162.538 208.538 165 205.5 165C202.462 165 200 162.538 200 159.5Z" stroke="#FF1F1F" stroke-opacity="0.2"/>
</g>
<g filter="url(#filter10_f_18_83)">
<path d="M116 211.5V207.5C116 204.462 118.462 202 121.5 202C124.538 202 127 204.462 127 207.5V211.5C127 214.538 124.538 217 121.5 217C118.462 217 116 214.538 116 211.5Z" fill="#FF1F1F" fill-opacity="0.3"/>
<path d="M116 211.5V207.5C116 204.462 118.462 202 121.5 202C124.538 202 127 204.462 127 207.5V211.5C127 214.538 124.538 217 121.5 217C118.462 217 116 214.538 116 211.5Z" stroke="#FF1F1F" stroke-opacity="0.2"/>
</g>
<g filter="url(#filter11_f_18_83)">
<path d="M130 215.5V197.5C130 194.462 132.462 192 135.5 192C138.538 192 141 194.462 141 197.5V215.5C141 218.538 138.538 221 135.5 221C132.462 221 130 218.538 130 215.5Z" fill="#FF1F1F" fill-opacity="0.3"/>
<path d="M130 215.5V197.5C130 194.462 132.462 192 135.5 192C138.538 192 141 194.462 141 197.5V215.5C141 218.538 138.538 221 135.5 221C132.462 221 130 218.538 130 215.5Z" stroke="#FF1F1F" stroke-opacity="0.2"/>
</g>
<g filter="url(#filter12_f_18_83)">
<path d="M172 197.5V171.5C172 168.462 174.462 166 177.5 166C180.538 166 183 168.462 183 171.5V197.5C183 200.538 180.538 203 177.5 203C174.462 203 172 200.538 172 197.5Z" fill="#FF1F1F" fill-opacity="0.5"/>
<path d="M172 197.5V171.5C172 168.462 174.462 166 177.5 166C180.538 166 183 168.462 183 171.5V197.5C183 200.538 180.538 203 177.5 203C174.462 203 172 200.538 172 197.5Z" stroke="#FF1F1F" stroke-opacity="0.2"/>
</g>
<g filter="url(#filter13_f_18_83)">
<path d="M158 214.5V188.5C158 185.462 160.462 183 163.5 183C166.538 183 169 185.462 169 188.5V214.5C169 217.538 166.538 220 163.5 220C160.462 220 158 217.538 158 214.5Z" fill="#FF1F1F" fill-opacity="0.5"/>
<path d="M158 214.5V188.5C158 185.462 160.462 183 163.5 183C166.538 183 169 185.462 169 188.5V214.5C169 217.538 166.538 220 163.5 220C160.462 220 158 217.538 158 214.5Z" stroke="#FF1F1F" stroke-opacity="0.2"/>
</g>
<path d="M51 110L51.5601 125.247" stroke="#FF1F1F" stroke-opacity="0.2"/>
<path d="M66 159L66 165" stroke="#FF1F1F" stroke-opacity="0.2"/>
<path d="M66 187L66 193" stroke="#FF1F1F" stroke-opacity="0.2"/>
<path d="M122 217L122 223" stroke="#FF1F1F" stroke-opacity="0.2"/>
<path d="M136 221L136 240" stroke="#FF1F1F" stroke-opacity="0.2"/>
<path d="M164 172L164 184" stroke="#FF1F1F" stroke-opacity="0.2"/>
<path d="M178 154L178 166" stroke="#FF1F1F" stroke-opacity="0.2"/>
<path d="M178 203L178 212" stroke="#FF1F1F" stroke-opacity="0.2"/>
<path d="M206 165V185" stroke="#FF1F1F" stroke-opacity="0.2"/>
<path d="M164 220L164 232" stroke="#FF1F1F" stroke-opacity="0.2"/>
<path d="M51 172L51.5601 187.247" stroke="#FF1F1F" stroke-opacity="0.2"/>
<rect x="111" y="68" width="28" height="149" rx="10" fill="#FDFBFB"/>
<rect x="170" y="72" width="28" height="117" rx="10" fill="white"/>
<rect x="69" y="107" width="4" height="90" rx="2" fill="white"/>
<rect x="183" y="56" width="4" height="149" rx="2" fill="white"/>
<rect x="231" y="96" width="4" height="95" rx="2" fill="white"/>
<rect x="123" y="56" width="4" height="202" rx="2" fill="white"/>
<rect x="57" y="120" width="28" height="58" rx="10" fill="white"/>
<path d="M219 126C219 120.477 223.477 116 229 116H237C242.523 116 247 120.477 247 126V159C247 164.523 242.523 169 237 169H229C223.477 169 219 164.523 219 159V126Z" fill="white"/>
<defs>
<filter id="filter0_f_18_83" x="83.5" y="184.5" width="20" height="37" filterUnits="userSpaceOnUse" color-interpolation-filters="sRGB">
<feFlood flood-opacity="0" result="BackgroundImageFix"/>
<feBlend mode="normal" in="SourceGraphic" in2="BackgroundImageFix" result="shape"/>
<feGaussianBlur stdDeviation="2" result="effect1_foregroundBlur_18_83"/>
</filter>
<filter id="filter1_f_18_83" x="97.5" y="202.5" width="20" height="46" filterUnits="userSpaceOnUse" color-interpolation-filters="sRGB">
<feFlood flood-opacity="0" result="BackgroundImageFix"/>
<feBlend mode="normal" in="SourceGraphic" in2="BackgroundImageFix" result="shape"/>
<feGaussianBlur stdDeviation="2" result="effect1_foregroundBlur_18_83"/>
</filter>
<filter id="filter2_f_18_83" x="181.5" y="108.5" width="20" height="81" filterUnits="userSpaceOnUse" color-interpolation-filters="sRGB">
<feFlood flood-opacity="0" result="BackgroundImageFix"/>
<feBlend mode="normal" in="SourceGraphic" in2="BackgroundImageFix" result="shape"/>
<feGaussianBlur stdDeviation="2" result="effect1_foregroundBlur_18_83"/>
</filter>
<filter id="filter3_f_18_83" x="139.5" y="153.5" width="20" height="46" filterUnits="userSpaceOnUse" color-interpolation-filters="sRGB">
<feFlood flood-opacity="0" result="BackgroundImageFix"/>
<feBlend mode="normal" in="SourceGraphic" in2="BackgroundImageFix" result="shape"/>
<feGaussianBlur stdDeviation="2" result="effect1_foregroundBlur_18_83"/>
</filter>
<filter id="filter4_f_18_83" x="209.5" y="90.5" width="20" height="64" filterUnits="userSpaceOnUse" color-interpolation-filters="sRGB">
<feFlood flood-opacity="0" result="BackgroundImageFix"/>
<feBlend mode="normal" in="SourceGraphic" in2="BackgroundImageFix" result="shape"/>
<feGaussianBlur stdDeviation="2" result="effect1_foregroundBlur_18_83"/>
</filter>
<filter id="filter5_f_18_83" x="223.5" y="87.5" width="20" height="53" filterUnits="userSpaceOnUse" color-interpolation-filters="sRGB">
<feFlood flood-opacity="0" result="BackgroundImageFix"/>
<feBlend mode="normal" in="SourceGraphic" in2="BackgroundImageFix" result="shape"/>
<feGaussianBlur stdDeviation="2" result="effect1_foregroundBlur_18_83"/>
</filter>
<filter id="filter6_f_18_83" x="69.5" y="145.5" width="20" height="58" filterUnits="userSpaceOnUse" color-interpolation-filters="sRGB">
<feFlood flood-opacity="0" result="BackgroundImageFix"/>
<feBlend mode="normal" in="SourceGraphic" in2="BackgroundImageFix" result="shape"/>
<feGaussianBlur stdDeviation="2" result="effect1_foregroundBlur_18_83"/>
</filter>
<filter id="filter7_f_18_83" x="41.5" y="120.5" width="20" height="56" filterUnits="userSpaceOnUse" color-interpolation-filters="sRGB">
<feFlood flood-opacity="0" result="BackgroundImageFix"/>
<feBlend mode="normal" in="SourceGraphic" in2="BackgroundImageFix" result="shape"/>
<feGaussianBlur stdDeviation="2" result="effect1_foregroundBlur_18_83"/>
</filter>
<filter id="filter8_f_18_83" x="55.5" y="160.5" width="20" height="31" filterUnits="userSpaceOnUse" color-interpolation-filters="sRGB">
<feFlood flood-opacity="0" result="BackgroundImageFix"/>
<feBlend mode="normal" in="SourceGraphic" in2="BackgroundImageFix" result="shape"/>
<feGaussianBlur stdDeviation="2" result="effect1_foregroundBlur_18_83"/>
</filter>
<filter id="filter9_f_18_83" x="195.5" y="138.5" width="20" height="31" filterUnits="userSpaceOnUse" color-interpolation-filters="sRGB">
<feFlood flood-opacity="0" result="BackgroundImageFix"/>
<feBlend mode="normal" in="SourceGraphic" in2="BackgroundImageFix" result="shape"/>
<feGaussianBlur stdDeviation="2" result="effect1_foregroundBlur_18_83"/>
</filter>
<filter id="filter10_f_18_83" x="111.5" y="197.5" width="20" height="24" filterUnits="userSpaceOnUse" color-interpolation-filters="sRGB">
<feFlood flood-opacity="0" result="BackgroundImageFix"/>
<feBlend mode="normal" in="SourceGraphic" in2="BackgroundImageFix" result="shape"/>
<feGaussianBlur stdDeviation="2" result="effect1_foregroundBlur_18_83"/>
</filter>
<filter id="filter11_f_18_83" x="125.5" y="187.5" width="20" height="38" filterUnits="userSpaceOnUse" color-interpolation-filters="sRGB">
<feFlood flood-opacity="0" result="BackgroundImageFix"/>
<feBlend mode="normal" in="SourceGraphic" in2="BackgroundImageFix" result="shape"/>
<feGaussianBlur stdDeviation="2" result="effect1_foregroundBlur_18_83"/>
</filter>
<filter id="filter12_f_18_83" x="167.5" y="161.5" width="20" height="46" filterUnits="userSpaceOnUse" color-interpolation-filters="sRGB">
<feFlood flood-opacity="0" result="BackgroundImageFix"/>
<feBlend mode="normal" in="SourceGraphic" in2="BackgroundImageFix" result="shape"/>
<feGaussianBlur stdDeviation="2" result="effect1_foregroundBlur_18_83"/>
</filter>
<filter id="filter13_f_18_83" x="153.5" y="178.5" width="20" height="46" filterUnits="userSpaceOnUse" color-interpolation-filters="sRGB">
<feFlood flood-opacity="0" result="BackgroundImageFix"/>
<feBlend mode="normal" in="SourceGraphic" in2="BackgroundImageFix" result="shape"/>
<feGaussianBlur stdDeviation="2" result="effect1_foregroundBlur_18_83"/>
</filter>
<radialGradient id="paint0_radial_18_83" cx="0" cy="0" r="1" gradientUnits="userSpaceOnUse" gradientTransform="translate(150 20) rotate(90) scale(260 244.457)">
<stop offset="0.276314" stop-color="#FF6968"/>
<stop offset="0.660059" stop-color="#A334FA"/>
<stop offset="1" stop-color="#0695FF"/>
</radialGradient>
</defs>
</svg>
